<?xml version="1.0" standalone="no"?>
<!DOCTYPE svg PUBLIC "-//W3C//DTD SVG 20010904//EN"
 "http://www.w3.org/TR/2001/REC-SVG-20010904/DTD/svg10.dtd">
<svg version="1.0" xmlns="http://www.w3.org/2000/svg"
 width="16.000000pt" height="16.000000pt" viewBox="0 0 16.000000 16.000000"
 preserveAspectRatio="xMidYMid meet">
<metadata>
Created by potrace 1.11, written by Peter Selinger 2001-2013
</metadata>
<g transform="translate(0.000000,16.000000) scale(0.002286,-0.002286)"
fill="#000000" stroke="none">
<path d="M3777 6404 c-2 -3 -40 -8 -142 -18 -27 -3 -61 -8 -75 -11 -13 -2 -65
-12 -115 -20 -147 -26 -422 -97 -500 -130 -16 -7 -41 -16 -55 -20 -159 -46
-519 -233 -720 -374 -181 -126 -272 -203 -420 -351 -157 -158 -226 -243 -314
-390 -90 -149 -177 -365 -192 -475 -2 -16 -8 -51 -13 -78 -12 -65 -6 -310 9
-372 66 -268 193 -411 430 -481 82 -24 151 -35 269 -40 107 -5 113 -4 108 13
-3 10 -24 71 -47 136 -22 65 -44 144 -47 175 -13 108 -7 412 11 522 2 14 8 48
12 75 43 284 157 560 327 790 62 84 203 229 272 280 22 16 42 32 45 35 3 3 41
29 85 57 144 91 354 189 472 220 101 26 316 70 378 77 33 4 80 10 105 13 68
10 437 9 500 0 388 -61 657 -346 730 -777 19 -108 22 -147 21 -265 0 -125 -3
-162 -27 -310 -63 -387 -245 -806 -472 -1085 -114 -140 -304 -300 -459 -387
-63 -35 -198 -87 -253 -97 -114 -21 -140 -23 -140 -9 0 13 35 178 65 308 11
48 76 354 90 426 2 9 13 61 25 115 12 55 23 108 26 119 2 11 26 124 53 250 27
127 52 242 54 255 3 14 41 194 86 400 44 206 82 386 85 400 2 14 16 79 31 145
15 66 28 128 30 138 4 17 -1 18 -61 12 -36 -3 -73 -8 -83 -10 -10 -2 -42 -6
-72 -10 -30 -3 -65 -8 -79 -10 -14 -2 -50 -7 -80 -10 -30 -3 -82 -10 -115 -15
-33 -5 -87 -12 -120 -15 -33 -3 -67 -8 -75 -10 -8 -2 -40 -7 -70 -10 -30 -3
-66 -8 -80 -10 -14 -2 -49 -7 -79 -10 -30 -4 -62 -8 -72 -10 -10 -2 -49 -7
-86 -10 -37 -4 -70 -9 -72 -11 -4 -4 -29 -106 -37 -154 -3 -19 -19 -96 -36
-170 -16 -74 -32 -146 -34 -160 -3 -14 -9 -44 -15 -68 -5 -23 -12 -59 -15 -80
-3 -20 -8 -40 -10 -43 -2 -4 -12 -49 -23 -100 -10 -52 -29 -139 -41 -194 -12
-55 -24 -111 -26 -124 -6 -30 -64 -301 -69 -321 -4 -19 -104 -489 -116 -550
-5 -25 -11 -54 -13 -65 -3 -11 -39 -180 -80 -375 -42 -195 -79 -368 -82 -385
-3 -16 -9 -46 -14 -65 -5 -19 -11 -46 -14 -60 -16 -86 -27 -138 -35 -169 -6
-20 -12 -49 -15 -66 -3 -16 -7 -39 -10 -50 -10 -44 -25 -111 -30 -135 -2 -14
-20 -99 -39 -190 -29 -136 -110 -524 -122 -580 -2 -8 -24 -109 -49 -225 -67
-309 -77 -357 -82 -390 -3 -16 -11 -55 -19 -85 -7 -30 -16 -73 -20 -96 l-6
-40 553 0 553 1 13 60 c7 33 34 154 58 270 25 116 56 262 70 325 14 63 27 126
30 140 3 14 19 88 35 165 47 220 100 468 105 495 3 13 35 162 70 330 36 168
68 314 70 325 2 11 6 31 10 45 3 14 6 31 6 38 1 8 22 12 67 13 105 0 286 13
341 24 10 2 40 6 67 10 91 12 308 74 418 118 174 70 417 201 520 279 209 160
422 382 553 579 133 198 270 544 297 749 3 25 8 58 11 74 17 105 19 357 4 453
-18 110 -39 205 -56 258 -8 28 -17 57 -19 65 -16 75 -133 282 -212 377 -244
291 -551 471 -948 558 -100 21 -154 30 -325 51 -52 6 -418 13 -423 8z"/>
</g>
</svg>
