<svg xmlns="http://www.w3.org/2000/svg" fill-rule="evenodd" stroke-miterlimit="1.4" viewBox="0 0 500 250" clip-rule="evenodd" stroke-linejoin="round"><g fill-rule="nonzero"><path fill="url(#a)" d="M112 186.2l22.3-104.7 24.4-3.2-11.7 55c2.8-.2 5.4-1 8-2.3 2.4-1.3 4.7-3 7-5 2-2 4-4.2 5.6-7 1.8-2.5 3.2-5.3 4.4-8.2 1.2-3 2.2-6 2.8-9 .6-3 1-6 1-9s-.4-6-1.2-8.7c-.8-2.6-2-5-3.6-7-1.7-2-3.8-3.7-6.4-5-2.6-1-5.7-1.6-9.2-1.6-6.7 0-12.7 1-18 2.7-5.3 2-9.7 4.5-13.4 8-3.6 3.4-6.4 7.6-8.3 12.5-2 5-3 10.6-3 17 0 2 .2 3.7.4 5 .4 1.3.6 2.3 1 3 .2 1 .4 1.5.7 2 .2.3.3.7.3 1-2.8 0-5.3-.2-7.5-.8-2.2-.6-4-1.5-5.5-2.7-1.5-1.2-2.6-3-3.4-5-.8-2-1.2-4.4-1.2-7.4 0-3.7.8-7.3 2.4-10.8 1.6-3.5 3.7-7 6.5-10 2.8-3.2 6-6 9.7-8.8 3.8-2.7 7.7-5 12-7s8.7-3.4 13.3-4.5c4.7-1 9.3-1.7 14-1.7 6.6 0 12.5 1 17.3 2.7 5 1.8 9 4.2 12 7.2 3.3 3 5.7 6.4 7.2 10.3 1.5 4 2.2 8 2.2 12.2 0 5.2-1 10.5-3.3 15.7-2 5.2-5.3 10-9.4 14-4 4.3-9 7.7-15 10.4-5.8 2.6-12.4 4-19.8 4h-1l-10 46.8H112z"/><path fill="url(#b)" d="M283.3 123.7c-3.3 3.4-7.4 6.3-12.5 8.6-5 2.4-10.6 4-16.7 5-.5 7.7-2 14.5-4.3 20.6-2.3 6-5 11.2-8.6 15.5-3.4 4.3-7.4 7.6-12 10-4.4 2.2-9.2 3.4-14.2 3.4-3.8 0-7.3-.6-10.6-1.5-3.2-1-6-2.5-8.3-4.5-2.4-2-4.3-4.8-5.6-8-1.3-3.4-2-7.4-2-12 0-3.3.4-7 1-11 .7-4.2 1.8-8.4 3.3-12.7 1.4-4.3 3.4-8.6 5.7-12.7 2.3-4.2 5-8 8.5-11.2 3.2-3.2 7-6 11.5-8 4.4-2 9.4-3 15-3 14 0 21.2 9 21.2 26.4.2.2.5.3.7.3h1c2 0 4-.2 6.3-.7 2.2-.6 4.4-1.3 6.7-2.3l6.6-3 5.8-3.8 1.5 4.5zm-43 14.2c-1.6-.6-2.7-1.4-3.4-2.7-.7-1.2-1-2.7-1-4.4 0-2.4.5-4.2 1.4-5.7 1-1.5 2.2-2.6 3.8-3.3 0-1.7-.3-3.2-.6-4.4-.3-1.2-.6-2.2-1-3-.6-.8-1.2-1.3-2-1.7-.7-.4-1.6-.5-2.7-.5-2 0-4 .7-5.8 2.3-1.8 1.5-3.6 3.5-5.2 6s-3 5.4-4.5 8.7c-1.4 3.2-2.5 6.5-3.5 10-1 3.4-1.7 6.8-2.2 10-.6 3.5-.8 6.5-.8 9.2 0 2.8 0 5 .4 6.7.3 1.7.8 3 1.4 4 .7 1 1.6 1.7 2.7 2 1 .5 2.3.7 4 .7 2 0 4-.8 6-2.6 2-1.7 3.8-4 5.5-7.2 1.7-3 3.2-6.7 4.5-10.8 1.3-4.2 2.3-8.7 3-13.5z"/><path fill="url(#c)" d="M314 156.7c-1.7 4.5-3.4 8.3-5.3 11.6-2 3.3-4 6-6 8.3-2 2.2-4 4-6.3 5.4-2.2 1.4-4.3 2.5-6.3 3.3-2 .7-4 1.2-5.7 1.5-2 .3-3.5.4-5 .4-2.4 0-4.7-.4-7-1-2-1-4-2-5.5-3.7-1.5-1.6-2.8-3.6-3.7-6-.8-2.5-1.3-5.5-1.3-9 0-1.5 0-3 .4-5l1-5.8 17.6-82.4L305 71l-19 89c-.2.8-.4 1.7-.4 2.6l-.2 2.6c0 2.3.6 4 1.6 4.8 1 .8 2.8 1.3 5 1.3 1.7 0 3.3-.4 4.8-1 1.5-.8 3-1.8 4.2-3 1.3-1.4 2.5-3 3.5-4.7 1-1.8 1.8-3.8 2.5-6h7z"/><path fill="url(#d)" d="M357.8 156.7c-1.5 4.5-3.3 8.3-5.2 11.6-2 3.3-3.8 6-6 8.3-2 2.2-4 4-6.3 5.4-2 1.4-4.2 2.5-6.3 3.3-2 .7-4 1.2-5.8 1.5-1.8.3-3.5.4-5 .4-2.4 0-4.7-.4-6.8-1-2.2-1-4-2-5.6-3.7-1.6-1.6-2.8-3.6-3.8-6-1-2.5-1.3-5.5-1.3-9 0-1.5 0-3 .3-5 .2-1.7.5-3.7 1-5.8l17.6-82.4L349 71l-19 89-.5 2.6v2.6c0 2.3.4 4 1.5 4.8 1 .8 2.7 1.3 5 1.3 1.7 0 3.2-.4 4.7-1 1.6-.8 3-1.8 4.3-3 1.2-1.4 2.4-3 3.4-4.7 1-1.8 2-3.8 2.5-6h6.8z"/><path fill="url(#e)" d="M399 99c.3 7 .6 13.2 1 18.4l.7 13.6.7 9.7.6 7.2c.2 2 .4 3.8.4 5.5l.2 5.2c0 3.6-.5 6.8-1.5 9.6-1 3-2.2 5.3-4 7.4-1.6 2-3.6 4-5.8 5.3-2.2 1.5-4.6 2.7-7 3.6-2.4 1-5 1.6-7.4 2-2.5.4-5 .6-7.2.6-4 0-7.7-.6-10.7-2-3-1.2-5.6-2.8-7.6-4.8s-3.4-4.3-4.4-6.8c-1-2.4-1.4-5-1.4-7.5 0-1.8.3-3.6.8-5.2s1-3 2-4.4c.7-1.3 1.7-2.4 2.7-3.3 1.2-1 2.2-1.6 3.4-2 4.6-8.4 8.5-16.5 11.6-24.6 3.2-8 6-16.2 8.6-24.3l24.4-3zm-44.6 63.7c0 3.8.7 6.7 2.3 8.6 1.5 2 4 3 7.7 3 1.8 0 3.6-.4 5.3-1 1.7-.4 3.3-1.3 4.6-2.5 1.3-1.2 2.4-2.7 3.2-4.7.8-1.8 1.2-4.2 1.2-7v-4.2l-.4-4c0-1.6-.2-3.3-.4-5l-.8-6.4-.7-8.4-1-11c-1.6 5.3-3.5 10.5-5.8 15.5-2.2 5-4.7 10.2-7.5 15.5 1 .6 2 1.4 2.7 2.3.7 1 1 2 1 3.4 0 1 0 2-.5 3-.3 1-.8 1.8-1.4 2.6-.6.8-1.3 1.4-2.2 2-1 .3-2 .6-3 .6s-1.8-.3-2.6-.6c-.8-.2-1.4-.8-1.8-1.7z"/></g><defs><linearGradient id="a" x2="1" gradientUnits="userSpaceOnUse" gradientTransform="matrix(0 -124.369 124.369 0 250 187.185)"><stop offset="0" stop-color="#ff0944"/><stop offset="1" stop-color="#ffb199"/></linearGradient><linearGradient id="b" x2="1" gradientUnits="userSpaceOnUse" gradientTransform="matrix(0 -124.369 124.369 0 250 187.185)"><stop offset="0" stop-color="#ff0944"/><stop offset="1" stop-color="#ffb199"/></linearGradient><linearGradient id="c" x2="1" gradientUnits="userSpaceOnUse" gradientTransform="matrix(0 -124.369 124.369 0 250 187.185)"><stop offset="0" stop-color="#ff0944"/><stop offset="1" stop-color="#ffb199"/></linearGradient><linearGradient id="d" x2="1" gradientUnits="userSpaceOnUse" gradientTransform="matrix(0 -124.369 124.369 0 250 187.185)"><stop offset="0" stop-color="#ff0944"/><stop offset="1" stop-color="#ffb199"/></linearGradient><linearGradient id="e" x2="1" gradientUnits="userSpaceOnUse" gradientTransform="matrix(0 -124.369 124.369 0 250 187.185)"><stop offset="0" stop-color="#ff0944"/><stop offset="1" stop-color="#ffb199"/></linearGradient></defs></svg>